# xmcd
# Track frame offsets:
# 150
# 25686
# 36675
# 53606
# 79745
# 94429
# 113689
# 127348
# 154487
# 172258
# 186740
# 199770
#
# Disc length: 2994 seconds
# Revision: 0
# Processed by: cddbd v1.5.2PL0 Copyright (c) Steve Scherf et al.
# Submitted via: VisiTrax 2.11.2.271 - For more info visit www.synapsa.com
#
DISCID=b50bb00c
DTITLE=Broken Needles, The - Terra Nullius
DYEAR=2012
DGENRE=Blues
TTITLE0=Broken Needles, The - Detritus
TTITLE1=Broken Needles, The - Sltflat Baby
TTITLE2=Broken Needles, The - Cheap Gin
TTITLE3=Broken Needles, The - Cocaine Blues
TTITLE4=Broken Needles, The - (I am not the) Resurrection
TTITLE5=Broken Needles. The - Abahoir Song
TTITLE6=Broken Needles, The - Toy Horses
TTITLE7=Broken Needles, The - Tropical Disease
TTITLE8=Broken Needles, The - Tracy
TTITLE9=Broken Needles, The - Saigon Pussy
TTITLE10=Broken Needles, The - Ruby
TTITLE11=Broken Needles, The - Take it Easy
EXTD=
EXTT0=
EXTT1=
EXTT2=
EXTT3=
EXTT4=
EXTT5=
EXTT6=
EXTT7=
EXTT8=
EXTT9=
EXTT10=
EXTT11=
PLAYORDER=
